# xmcd
#
# Track frame offsets: 
#        150
#        19985
#        50502
#        76165
#
# Disc length: 1455 seconds
#
# Revision: 3
# Processed by: cddbd v1.5PL3 Copyright (c) Steve Scherf et al.
# Submitted via: ExactAudioCopy v0.95a5
#
DISCID=2705ad04
DTITLE=Deep Forest - Savana Dance [CD-S)
DYEAR=1994
DGENRE=World
TTITLE0=Savana Dance (LP Version)
TTITLE1=Savana Dance (Bay Route Kettle Mix)
TTITLE2=Savana Dance (Moorslede Remix)
TTITLE3=Savana Dance (Sierra Nevada Remix)
EXTD=YEAR: 1994
EXTT0=
EXTT1=
EXTT2=
EXTT3=
PLAYORDER=
